<?xml version="1.0" encoding="iso-8859-1"?>
<!-- Uploaded to: SVG Repo, www.svgrepo.com, Generator: SVG Repo Mixer Tools -->
<svg height="800px" width="800px" version="1.1" id="Layer_1" xmlns="http://www.w3.org/2000/svg" xmlns:xlink="http://www.w3.org/1999/xlink" 
	 viewBox="0 0 392.533 392.533" xml:space="preserve">
<g>
	<path style="fill:#FFFFFF;" d="M242.618,126.658v136.727c0,24.63,15.838,45.964,39.499,53.075l88.63,26.634v-77.77
		C370.747,192.275,314.182,132.218,242.618,126.658z"/>
	<path style="fill:#FFFFFF;" d="M21.786,265.325v77.899l88.63-26.634c23.596-7.111,39.499-28.444,39.499-53.075V126.658
		C83.653,131.701,23.208,186.65,21.786,265.325z"/>
</g>
<path style="fill:#FFC10D;" d="M288.388,295.58c-14.287-4.331-23.984-17.261-23.984-32.194V152.711
	c48.743,14.222,84.428,59.281,84.428,112.485v48.549L288.388,295.58z"/>
<path style="fill:#56ACE0;" d="M49.39,229.188h39.305c6.012,0,10.925,4.848,10.925,10.925s-4.848,10.925-10.925,10.925H44.606
	c-0.517,4.719-0.905,9.438-0.905,14.222v7.564H64.97c6.012,0,10.925,4.848,10.925,10.925s-4.848,10.925-10.925,10.925H43.636v19.135
	l60.574-18.23c14.287-4.331,23.984-17.261,23.984-32.194V152.84C90.893,163.507,61.285,192.404,49.39,229.188z"/>
<g>
	<path style="fill:#194F82;" d="M231.758,104.485c-6.012,0-10.925,4.848-10.925,10.925v59.863l-13.705-13.705V34.667
		c0-6.012-4.848-10.925-10.925-10.925c-6.077,0-10.925,4.848-10.925,10.925v126.966l-13.576,13.64V115.41
		c0-6.012-4.848-10.925-10.925-10.925C72.145,104.485,0,176.565,0,265.325v92.574c0,3.491,1.616,6.723,4.396,8.727
		c2.327,1.681,6.271,2.78,9.632,1.681l102.723-30.901c32.905-9.891,54.949-39.628,54.949-73.956v-57.341l24.566-24.566
		l24.566,24.566v57.341c0,34.327,22.109,64.065,54.95,73.956l102.723,30.901c3.168,1.034,6.4,0.388,9.632-1.681
		c2.78-2.069,4.396-5.301,4.396-8.727v-92.574C392.533,176.565,320.388,104.485,231.758,104.485z M149.915,263.386
		c0,24.63-15.838,45.964-39.499,53.075l-88.63,26.634v-77.899c1.422-78.61,61.867-133.495,128.129-138.537
		C149.915,126.658,149.915,263.386,149.915,263.386z M370.747,343.095l-88.63-26.634c-23.596-7.111-39.499-28.444-39.499-53.075
		V126.658c71.564,5.56,128.129,65.616,128.129,138.537L370.747,343.095L370.747,343.095z"/>
	<path style="fill:#194F82;" d="M279.79,158.4c-5.495-2.457-11.96-0.065-14.481,5.495c-2.457,5.495-0.065,11.96,5.495,14.481
		c15.838,7.111,29.414,18.489,39.305,32.84c3.556,4.719,10.343,6.271,15.127,2.78c4.913-3.426,6.206-10.214,2.78-15.127
		C315.992,181.155,299.248,167.192,279.79,158.4z"/>
</g>
</svg>